<?xml version="1.0" encoding="UTF-8"?>
<svg width="68px" height="68px" viewBox="0 0 68 68" version="1.1" xmlns="http://www.w3.org/2000/svg" xmlns:xlink="http://www.w3.org/1999/xlink">
    <!-- Generator: Sketch 43.1 (39012) - http://www.bohemiancoding.com/sketch -->
    <title>Page 1</title>
    <desc>Created with Sketch.</desc>
    <defs>
        <polygon id="path-1" points="0 33.9997875 0 0 68 0 68 33.9997875 68 67.999575 0 67.999575 0 33.9997875"></polygon>
    </defs>
    <g id="Page-1" stroke="none" stroke-width="1" fill="none" fill-rule="evenodd">
        <g id="One-pager" transform="translate(-247.000000, -1242.000000)">
            <g id="Page-1" transform="translate(247.000000, 1242.000000)">
                <mask id="mask-2" fill="white">
                    <use xlink:href="#path-1"></use>
                </mask>
                <g id="Clip-2"></g>
                <path d="M15.9375,27.624575 C14.175875,27.624575 12.75,26.196575 12.75,24.437075 C12.75,22.677575 14.175875,21.249575 15.9375,21.249575 C17.699125,21.249575 19.125,22.677575 19.125,24.437075 C19.125,26.196575 17.699125,27.624575 15.9375,27.624575 M28.6875,27.624575 C26.925875,27.624575 25.5,26.196575 25.5,24.437075 C25.5,22.677575 26.925875,21.249575 28.6875,21.249575 C30.449125,21.249575 31.875,22.677575 31.875,24.437075 C31.875,26.196575 30.449125,27.624575 28.6875,27.624575 M41.4375,27.624575 C39.675875,27.624575 38.25,26.196575 38.25,24.437075 C38.25,22.677575 39.675875,21.249575 41.4375,21.249575 C43.199125,21.249575 44.625,22.677575 44.625,24.437075 C44.625,26.196575 43.199125,27.624575 41.4375,27.624575 M27.625,4.249575 C14.715625,4.249575 4.25,13.289325 4.25,24.437075 C4.25,31.521825 8.483,37.7417 14.875,41.343575 L14.875,45.602075 L14.875,48.874575 L18.000875,46.804825 C17.9945,46.8027 17.99025,46.800575 17.986,46.79845 L22.127625,44.0402 C23.8935,44.407825 25.727375,44.624575 27.625,44.624575 C40.534375,44.624575 51,35.58695 51,24.437075 C51,13.289325 40.534375,4.249575 27.625,4.249575 M27.625,48.343325 C25.884625,48.343325 24.18675,48.186075 22.535625,47.9162 L10.625,55.249575 L10.625,43.1987 C4.165,38.77445 0,31.90645 0,24.17145 C0,10.8222 12.3675,-0.000425 27.625,-0.000425 C42.8825,-0.000425 55.25,10.8222 55.25,24.17145 C55.25,37.5207 42.8825,48.343325 27.625,48.343325 M57.375,55.946575 L57.375,67.999575 L45.464375,60.6662 C43.81325,60.936075 42.115375,61.093325 40.375,61.093325 C32.191625,61.093325 24.8625,57.961075 19.805,53.0162 C20.638,53.065075 21.46675,53.124575 22.3125,53.124575 C23.500375,53.124575 24.669125,53.0672 25.82725,52.9737 C29.82225,55.721325 34.87125,57.374575 40.375,57.374575 C42.272625,57.374575 44.1065,57.157825 45.872375,56.7902 L50.014,59.54845 L50.00125,59.554825 L53.125,61.624575 L53.125,58.352075 L53.125,54.093575 C59.517,50.4917 63.75,44.271825 63.75,37.187075 C63.75,32.707575 62.039375,28.580825 59.179125,25.231825 C59.36825,23.92495 59.5,22.601075 59.5,21.249575 C59.5,20.6312 59.432,20.0277 59.391625,19.41995 C64.682875,23.82295 68,30.02795 68,36.92145 C68,44.65645 63.835,51.52445 57.375,55.946575" id="Fill-1" fill="#002D40" mask="url(#mask-2)"></path>
            </g>
        </g>
    </g>
</svg>