<?xml version="1.0" encoding="UTF-8"?>
<svg width="68px" height="68px" viewBox="0 0 68 68" version="1.1" xmlns="http://www.w3.org/2000/svg" xmlns:xlink="http://www.w3.org/1999/xlink">
    <!-- Generator: Sketch 43.1 (39012) - http://www.bohemiancoding.com/sketch -->
    <title>Page 1</title>
    <desc>Created with Sketch.</desc>
    <defs></defs>
    <g id="Page-1" stroke="none" stroke-width="1" fill="none" fill-rule="evenodd">
        <g id="One-pager" transform="translate(-247.000000, -953.000000)" fill="#002D40">
            <path d="M257.625,957.25 C254.103875,957.25 251.25,960.103875 251.25,963.625 L251.25,967.875 L247,967.875 L247,963.625 C247,957.75575 251.75575,953 257.625,953 L261.875,953 L261.875,957.25 L257.625,957.25 Z M295.875,989.125 L281,989.125 C279.824875,989.125 278.875,988.175125 278.875,987 L278.875,970 C278.875,968.824875 279.824875,967.875 281,967.875 C282.175125,967.875 283.125,968.824875 283.125,970 L283.125,984.875 L295.875,984.875 C297.050125,984.875 298,985.827 298,987 C298,988.175125 297.050125,989.125 295.875,989.125 L295.875,989.125 Z M281,961.5 C266.917625,961.5 255.5,972.917625 255.5,987 C255.5,1001.0845 266.917625,1012.5 281,1012.5 C295.082375,1012.5 306.5,1001.0845 306.5,987 C306.5,972.917625 295.082375,961.5 281,961.5 L281,961.5 Z M310.75,987 C310.75,998.268875 304.483375,1008.06938 295.246,1013.11838 L302.25,1021 L295.875,1021 L290.169375,1015.29437 C287.279375,1016.2315 284.202375,1016.75 281,1016.75 C277.797625,1016.75 274.720625,1016.2315 271.830625,1015.29437 L266.125,1021 L259.75,1021 L266.754,1013.11838 C257.516625,1008.06938 251.25,998.268875 251.25,987 C251.25,970.571625 264.571625,957.25 281,957.25 C297.4305,957.25 310.75,970.571625 310.75,987 L310.75,987 Z M310.75,967.875 L310.75,963.625 C310.75,960.103875 307.896125,957.25 304.375,957.25 L300.125,957.25 L300.125,953 L304.375,953 C310.24425,953 315,957.75575 315,963.625 L315,967.875 L310.75,967.875 Z" id="Page-1"></path>
        </g>
    </g>
</svg>