<?xml version="1.0" encoding="UTF-8"?>
<svg width="49px" height="46px" viewBox="0 0 49 46" version="1.1" xmlns="http://www.w3.org/2000/svg" xmlns:xlink="http://www.w3.org/1999/xlink">
    <!-- Generator: Sketch 43.1 (39012) - http://www.bohemiancoding.com/sketch -->
    <title>Page 1</title>
    <desc>Created with Sketch.</desc>
    <defs></defs>
    <g id="Page-1" stroke="none" stroke-width="1" fill="none" fill-rule="evenodd">
        <g id="One-pager" transform="translate(-354.000000, -2407.000000)" fill="#002D40">
            <g id="Group-6" transform="translate(247.000000, 2407.000000)">
                <path d="M152.9375,22.8389831 L137.407562,22.8389831 C137.536187,22.8389831 137.625,23.8332401 137.625,24.3615819 C137.625,27.7250028 134.882531,30.4519774 131.5,30.4519774 C128.117469,30.4519774 125.375,27.7250028 125.375,24.3615819 C125.375,23.8332401 125.463812,22.8389831 125.592437,22.8389831 L110.0625,22.8389831 L110.0625,39.5875706 C110.0625,41.2685198 111.4345,42.6327684 113.125,42.6327684 L149.875,42.6327684 C151.5655,42.6327684 152.9375,41.2685198 152.9375,39.5875706 L152.9375,22.8389831 Z M128.4375,24.3615819 C128.4375,26.0425311 129.8095,27.4067797 131.5,27.4067797 C133.1905,27.4067797 134.5625,26.0425311 134.5625,24.3615819 C134.5625,23.8043107 134.401719,22.8389831 134.138344,22.8389831 L128.861656,22.8389831 C128.598281,22.8389831 128.4375,23.8043107 128.4375,24.3615819 L128.4375,24.3615819 Z M152.9375,12.180791 C152.9375,10.4998418 151.5655,9.13559322 149.875,9.13559322 L113.125,9.13559322 C111.4345,9.13559322 110.0625,10.4998418 110.0625,12.180791 L110.0625,19.7937853 L152.9375,19.7937853 L152.9375,12.180791 Z M137.625,4.56779661 C137.625,3.72732203 136.939,3.04519774 136.09375,3.04519774 L126.90625,3.04519774 C126.061,3.04519774 125.375,3.72732203 125.375,4.56779661 L125.375,6.09039548 L126.90625,6.09039548 L136.09375,6.09039548 L137.625,6.09039548 L137.625,4.56779661 Z M149.875,45.6779661 L113.125,45.6779661 C109.742469,45.6779661 107,42.9509915 107,39.5875706 L107,12.180791 C107,8.81737006 109.742469,6.09039548 113.125,6.09039548 L122.3125,6.09039548 L122.3125,3.04519774 C122.3125,1.36424859 123.6845,0 125.375,0 L137.625,0 C139.3155,0 140.6875,1.36424859 140.6875,3.04519774 L140.6875,6.09039548 L149.875,6.09039548 C153.257531,6.09039548 156,8.81737006 156,12.180791 L156,39.5875706 C156,42.9509915 153.257531,45.6779661 149.875,45.6779661 L149.875,45.6779661 Z" id="Page-1"></path>
            </g>
        </g>
    </g>
</svg>