<?xml version="1.0" encoding="UTF-8"?>
<svg width="43px" height="68px" viewBox="0 0 43 68" version="1.1" xmlns="http://www.w3.org/2000/svg" xmlns:xlink="http://www.w3.org/1999/xlink">
    <!-- Generator: Sketch 43.1 (39012) - http://www.bohemiancoding.com/sketch -->
    <title>Page 1</title>
    <desc>Created with Sketch.</desc>
    <defs>
        <polygon id="path-1" points="0 33.9998937 0 0 43 0 43 33.9998937 43 67.9997875 0 67.9997875"></polygon>
    </defs>
    <g id="Page-1" stroke="none" stroke-width="1" fill="none" fill-rule="evenodd">
        <g id="One-pager" transform="translate(-1039.000000, -2385.000000)">
            <g id="Group-5" transform="translate(929.000000, 2385.000000)">
                <g id="Page-1" transform="translate(110.000000, 0.000000)">
                    <mask id="mask-2" fill="white">
                        <use xlink:href="#path-1"></use>
                    </mask>
                    <g id="Clip-2"></g>
                    <path d="M23.65,44.6247875 L23.65,53.1247875 C23.65,54.2999125 22.68895,55.2497875 21.5,55.2497875 C20.3132,55.2497875 19.35,54.2999125 19.35,53.1247875 L19.35,44.6247875 C19.35,43.4517875 20.3132,42.4997875 21.5,42.4997875 C22.68895,42.4997875 23.65,43.4517875 23.65,44.6247875 M4.3,46.7497875 C4.3,56.1380375 12.0013,63.7497875 21.5,63.7497875 C30.9987,63.7497875 38.7,56.1380375 38.7,46.7497875 C38.7,37.3615375 30.9987,29.7497875 21.5,29.7497875 C12.0013,29.7497875 4.3,37.3615375 4.3,46.7497875 M21.5,25.4997875 C33.3723,25.4997875 43,35.0155375 43,46.7497875 C43,58.4861625 33.3723,67.9997875 21.5,67.9997875 C9.6277,67.9997875 0,58.4861625 0,46.7497875 C0,41.9770375 2.15,37.5846625 4.3,34.0401625 L4.3,16.9997875 C4.3,7.6115375 12.0013,-0.0002125 21.5,-0.0002125 C30.9987,-0.0002125 38.7,8.4997875 38.7,16.9997875 L34.4,16.9997875 C34.4,10.6247875 28.62295,4.2497875 21.5,4.2497875 C14.37705,4.2497875 8.6,9.9596625 8.6,16.9997875 L8.6,29.7795375 C12.19695,27.1041625 16.65175,25.4997875 21.5,25.4997875" id="Fill-1" fill="#002D40" mask="url(#mask-2)"></path>
                </g>
            </g>
        </g>
    </g>
</svg>