<?xml version="1.0" encoding="UTF-8"?>
<svg width="68px" height="68px" viewBox="0 0 68 68" version="1.1" xmlns="http://www.w3.org/2000/svg" xmlns:xlink="http://www.w3.org/1999/xlink">
    <!-- Generator: Sketch 43.1 (39012) - http://www.bohemiancoding.com/sketch -->
    <title>Page 1</title>
    <desc>Created with Sketch.</desc>
    <defs>
        <polygon id="path-1" points="67.97212 0 -1.13686838e-13 0 -1.13686838e-13 67.97212 67.97212 67.97212 67.97212 8.05281767e-15"></polygon>
    </defs>
    <g id="Page-1" stroke="none" stroke-width="1" fill="none" fill-rule="evenodd">
        <g id="One-pager" transform="translate(-832.000000, -1242.000000)">
            <g id="Page-1" transform="translate(832.000000, 1242.000000)">
                <mask id="mask-2" fill="white">
                    <use xlink:href="#path-1"></use>
                </mask>
                <g id="Clip-2"></g>
                <path d="M34.0831867,39.7498533 L26.09772,46.7855867 L28.1943867,36.3498533 L24.26852,34.0831867 L21.2878533,55.11332 L38.0090533,42.01652 L34.0831867,39.7498533 Z M29.4387867,35.1054533 C29.4387867,33.2286533 30.9619867,31.7054533 32.8387867,31.7054533 C34.7155867,31.7054533 36.2387867,33.2286533 36.2387867,35.1054533 C36.2387867,36.9822533 34.7155867,38.5054533 32.8387867,38.5054533 C30.9619867,38.5054533 29.4387867,36.9822533 29.4387867,35.1054533 L29.4387867,35.1054533 Z M31.5943867,30.4610533 L39.58212,23.4275867 L37.4831867,33.8610533 L41.4090533,36.12772 L44.3919867,15.0975867 L27.66852,28.1943867 L31.5943867,30.4610533 Z M33.97212,4.50545333 C17.6974533,4.50545333 4.50545333,17.6974533 4.50545333,33.97212 C4.50545333,50.2490533 17.6974533,63.4387867 33.97212,63.4387867 C50.2490533,63.4387867 63.4387867,50.2490533 63.4387867,33.97212 C63.4387867,17.6974533 50.2490533,4.50545333 33.97212,4.50545333 L33.97212,4.50545333 Z M33.98572,67.97212 C15.2154533,67.97212 -0.00068,52.7559867 -0.00068,33.98572 C-0.00068,15.21772 15.2154533,-0.00068 33.98572,-0.00068 C52.7559867,-0.00068 67.97212,15.21772 67.97212,33.98572 C67.97212,52.7559867 52.7559867,67.97212 33.98572,67.97212 L33.98572,67.97212 Z" id="Fill-1" fill="#002D40" mask="url(#mask-2)"></path>
            </g>
        </g>
    </g>
</svg>