<?xml version="1.0" encoding="UTF-8"?>
<svg width="68px" height="68px" viewBox="0 0 68 68" version="1.1" xmlns="http://www.w3.org/2000/svg" xmlns:xlink="http://www.w3.org/1999/xlink">
    <!-- Generator: Sketch 43.1 (39012) - http://www.bohemiancoding.com/sketch -->
    <title>Page 1</title>
    <desc>Created with Sketch.</desc>
    <defs></defs>
    <g id="Page-1" stroke="none" stroke-width="1" fill="none" fill-rule="evenodd">
        <g id="One-pager" transform="translate(-832.000000, -953.000000)" fill="#002D40">
            <path d="M895.750111,981.421925 L876.486953,994.664948 L895.548236,1013.72836 C895.667236,1013.33948 895.750111,1012.93148 895.750111,1012.5001 L895.750111,981.421925 Z M866.000059,996.894077 L836.250007,976.375041 L865.957559,957.953384 L895.750111,976.375041 L866.000059,996.894077 Z M836.250007,1012.5001 C836.250007,1012.93148 836.332883,1013.33948 836.451883,1013.72836 L855.513166,994.664948 L836.250007,981.421925 L836.250007,1012.5001 Z M840.500015,1016.75011 L891.500104,1016.75011 C891.825229,1016.75011 892.13973,1016.70549 892.443606,1016.63536 L872.923321,997.115077 L866.000059,1001.87509 L859.076797,997.115077 L839.556513,1016.63536 C839.860389,1016.70549 840.174889,1016.75011 840.500015,1016.75011 L840.500015,1016.75011 Z M891.500104,1021.00012 L840.500015,1021.00012 C835.805882,1021.00012 832,1017.19424 832,1012.5001 L832,982.750052 L832,974.250037 L866.000059,953 L900.000119,974.250037 L900.000119,982.750052 L900.000119,1012.5001 C900.000119,1017.19424 896.194237,1021.00012 891.500104,1021.00012 L891.500104,1021.00012 Z" id="Page-1"></path>
        </g>
    </g>
</svg>