<?xml version="1.0" encoding="UTF-8"?>
<svg width="50px" height="58px" viewBox="0 0 50 58" version="1.1" xmlns="http://www.w3.org/2000/svg" xmlns:xlink="http://www.w3.org/1999/xlink">
    <!-- Generator: Sketch 43.1 (39012) - http://www.bohemiancoding.com/sketch -->
    <title>Page 1</title>
    <desc>Created with Sketch.</desc>
    <defs>
        <polygon id="path-1" points="0 29.0001933 0 0.000386666667 50 0.000386666667 50 29.0001933 50 58 0 58 0 29.0001933"></polygon>
    </defs>
    <g id="Page-1" stroke="none" stroke-width="1" fill="none" fill-rule="evenodd">
        <g id="One-pager" transform="translate(-695.000000, -2395.000000)">
            <g id="Group-4" transform="translate(588.000000, 2395.000000)">
                <g id="Page-1" transform="translate(107.000000, 0.000000)">
                    <mask id="mask-2" fill="white">
                        <use xlink:href="#path-1"></use>
                    </mask>
                    <g id="Clip-2"></g>
                    <path d="M25,38.6666667 C21.8134615,38.6666667 19.2307692,36.0702 19.2307692,32.8666667 C19.2307692,30.3436667 20.8423077,28.2208667 23.0769231,27.4224 L23.0769231,17.4 C23.0769231,16.3328 23.9365385,15.4666667 25,15.4666667 C26.0634615,15.4666667 26.9230769,16.3328 26.9230769,17.4 L26.9230769,27.4224 C29.1576923,28.2208667 30.7692308,30.3436667 30.7692308,32.8666667 C30.7692308,36.0702 28.1865385,38.6666667 25,38.6666667 M25,11.6 C13.3173077,11.6 3.84615385,21.1216667 3.84615385,32.8666667 C3.84615385,44.6116667 13.3173077,54.1333333 25,54.1333333 C36.6826923,54.1333333 46.1538462,44.6116667 46.1538462,32.8666667 C46.1538462,21.1216667 36.6826923,11.6 25,11.6 M50,32.8666667 C50,46.748 38.8076923,58 25,58 C11.1923077,58 0,46.748 0,32.8666667 C0,19.6310667 10.1826923,8.81213333 23.0961538,7.83 C23.0942308,7.7952 23.0769231,7.76813333 23.0769231,7.73333333 L23.0769231,3.86666667 L15.3846154,3.86666667 C14.3211538,3.86666667 13.4615385,3.00246667 13.4615385,1.93333333 C13.4615385,0.8642 14.3211538,0 15.3846154,0 L34.6153846,0 C35.6788462,0 36.5384615,0.8642 36.5384615,1.93333333 C36.5384615,3.00246667 35.6788462,3.86666667 34.6153846,3.86666667 L26.9230769,3.86666667 L26.9230769,7.73333333 C26.9230769,7.76813333 26.9057692,7.7952 26.9038462,7.83 C39.8173077,8.81213333 50,19.6310667 50,32.8666667" id="Fill-1" fill="#002D40" mask="url(#mask-2)"></path>
                </g>
            </g>
        </g>
    </g>
</svg>