<?xml version="1.0" encoding="UTF-8"?>
<svg width="144px" height="14px" viewBox="0 0 144 14" version="1.1" xmlns="http://www.w3.org/2000/svg" xmlns:xlink="http://www.w3.org/1999/xlink">
    <!-- Generator: Sketch 43.1 (39012) - http://www.bohemiancoding.com/sketch -->
    <title>Logo</title>
    <desc>Created with Sketch.</desc>
    <defs></defs>
    <g id="Page-1" stroke="none" stroke-width="1" fill="none" fill-rule="evenodd">
        <g id="One-pager" transform="translate(-150.000000, -2828.000000)" fill="#FFFFFF">
            <g id="Footer" transform="translate(0.000000, 2792.000000)">
                <g id="Logo" transform="translate(150.000000, 36.000000)">
                    <path d="M12.7989478,0.29951954 C12.9356258,0.447565517 13.0039647,0.644048276 13.0039647,0.888324138 L13.0039647,13.1117724 C13.0039647,13.3436575 12.9387173,13.5303241 12.8087105,13.6719333 C12.6783783,13.8133816 12.4963037,13.8843471 12.2619986,13.8843471 C12.0276936,13.8843471 11.8519647,13.8133816 11.7348122,13.6719333 C11.6176597,13.5303241 11.5590834,13.3436575 11.5590834,13.1117724 L11.5590834,3.24418621 L7.32206644,11.2772897 C7.13966644,11.6509448 6.87298169,11.8372897 6.52152407,11.8372897 C6.18292068,11.8372897 5.91623593,11.6509448 5.72098169,11.2772897 L1.46443932,3.34073793 L1.46443932,13.1117724 C1.46443932,13.3436575 1.4024461,13.5303241 1.2789478,13.6719333 C1.15496136,13.8133816 0.976303729,13.8843471 0.741998644,13.8843471 C0.507693559,13.8843471 0.325293559,13.8133816 0.19528678,13.6719333 C0.0649545763,13.5303241 3.2542373e-05,13.3436575 3.2542373e-05,13.1117724 L3.2542373e-05,0.888324138 C3.2542373e-05,0.644048276 0.0714630508,0.447565517 0.214812203,0.29951954 C0.357835932,0.151473563 0.553090169,0.0772896552 0.800574915,0.0772896552 C1.12583593,0.0772896552 1.38633763,0.263956322 1.58159186,0.637450575 L6.54104949,10.0414276 L11.4419308,0.637450575 C11.5459037,0.431473563 11.659802,0.286645977 11.7836258,0.202806897 C11.9071241,0.119289655 12.0535647,0.0772896552 12.2229478,0.0772896552 C12.4701071,0.0772896552 12.6622698,0.151473563 12.7989478,0.29951954" id="Fill-1"></path>
                    <path d="M20.9408054,13.6621172 C20.7909478,13.5143931 20.7162631,13.3179103 20.7162631,13.0731517 L20.7162631,1.52556552 L16.5182969,1.52556552 C16.2839919,1.52556552 16.1014292,1.4677954 15.9715851,1.35177241 C15.8412529,1.23591034 15.7763308,1.06887586 15.7763308,0.849864368 C15.7763308,0.631013793 15.8412529,0.463496552 15.9715851,0.347634483 C16.1014292,0.231772414 16.2839919,0.173841379 16.5182969,0.173841379 L26.5348393,0.173841379 C26.7691444,0.173841379 26.951219,0.231772414 27.0815512,0.347634483 C27.211558,0.463496552 27.2768054,0.631013793 27.2768054,0.849864368 C27.2768054,1.06887586 27.211558,1.23591034 27.0815512,1.35177241 C26.951219,1.4677954 26.7691444,1.52556552 26.5348393,1.52556552 L22.3368732,1.52556552 L22.3368732,13.0731517 C22.3368732,13.3179103 22.2651173,13.5143931 22.1220936,13.6621172 C21.9785817,13.8100023 21.7834902,13.8843471 21.5363308,13.8843471 C21.2888461,13.8843471 21.0901749,13.8100023 20.9408054,13.6621172" id="Fill-3"></path>
                    <path d="M30.2736976,13.5849724 C30.1240027,13.4496391 30.0491553,13.2731103 30.0491553,13.0539379 L30.0491553,0.88842069 C30.0491553,0.643983908 30.1205858,0.447501149 30.2639349,0.299455172 C30.4069586,0.151570115 30.6023756,0.0773862069 30.8496976,0.0773862069 C31.0968569,0.0773862069 31.2921112,0.151570115 31.4354603,0.299455172 C31.5786468,0.447501149 31.65024,0.643983908 31.65024,0.88842069 L31.65024,12.4360069 L37.9569519,12.4360069 C38.1912569,12.4360069 38.3734942,12.4939379 38.5036637,12.6098 C38.6336705,12.7255011 38.698918,12.8930184 38.698918,13.111869 C38.698918,13.3308805 38.6336705,13.4980759 38.5036637,13.6139379 C38.3734942,13.7296391 38.1912569,13.787731 37.9569519,13.787731 L30.8301722,13.787731 C30.6087214,13.787731 30.4232298,13.7201448 30.2736976,13.5849724" id="Fill-5"></path>
                    <path d="M54.5046671,0.492494253 C54.7713519,0.769436782 54.9049383,1.12667816 54.9049383,1.56421839 L54.9049383,12.5324943 C54.9049383,12.9573218 54.7811146,13.2921954 54.5339553,13.5367931 C54.2866332,13.7812299 53.9610468,13.9035287 53.5576841,13.9035287 C53.1671756,13.9035287 52.8480976,13.7812299 52.6009383,13.5367931 C52.3534536,13.2921954 52.2299553,12.9573218 52.2299553,12.5324943 L52.2299553,5.71594253 L49.4573451,10.8718046 C49.2749451,11.2068391 49.0765993,11.4511149 48.8618197,11.6057586 C48.64704,11.7600805 48.3897925,11.8373218 48.0905654,11.8373218 C47.8040298,11.8373218 47.5501993,11.7600805 47.3290739,11.6057586 C47.1076231,11.4511149 46.9058603,11.2068391 46.7237858,10.8718046 L43.9511756,5.81265517 L43.9511756,12.5324943 C43.9511756,12.9446092 43.8273519,13.2757816 43.5801925,13.526977 C43.3327078,13.7781724 43.0072841,13.9035287 42.6039214,13.9035287 C42.2134129,13.9035287 41.8943349,13.7812299 41.6471756,13.5367931 C41.3996908,13.2921954 41.2761925,12.9573218 41.2761925,12.5324943 L41.2761925,1.56421839 C41.2761925,1.12667816 41.4096163,0.769436782 41.6764637,0.492494253 C41.9431485,0.215873563 42.2915146,0.0773218391 42.7210739,0.0773218391 C43.3458875,0.0773218391 43.8208434,0.405597701 44.1464298,1.06214943 L48.1100908,8.49663218 L52.0542264,1.06214943 C52.4056841,0.405597701 52.8742942,0.0773218391 53.4600569,0.0773218391 C53.8896163,0.0773218391 54.2376569,0.215873563 54.5046671,0.492494253" id="Fill-7"></path>
                    <path d="M67.6842468,10.4276989 C68.34144,9.62969885 68.6702807,8.47735402 68.6702807,6.97114713 C68.6702807,5.46494023 68.3448569,4.31597471 67.6940095,3.52425057 C67.0429993,2.73252644 66.1384841,2.33666437 64.9799756,2.33666437 C63.8213044,2.33666437 62.9200434,2.73252644 62.2757044,3.52425057 C61.6313654,4.31597471 61.3091959,5.46494023 61.3091959,6.97114713 C61.3091959,8.47735402 61.6344569,9.62969885 62.2854671,10.4276989 C62.9361519,11.2260207 63.8343214,11.6247793 64.9799756,11.6247793 C66.1253044,11.6247793 67.0267281,11.2260207 67.6842468,10.4276989 M61.4165858,13.1021816 C60.4076095,12.529469 59.6300095,11.7184345 59.0832976,10.6690782 C58.5365858,9.61988276 58.2632298,8.3874 58.2632298,6.97114713 C58.2632298,5.55521609 58.5365858,4.32257241 59.0832976,3.27321609 C59.6300095,2.22418161 60.4076095,1.41636552 61.4165858,0.849767816 C62.4252366,0.283491954 63.6131959,-4.82758619e-05 64.9799756,-4.82758619e-05 C66.3467553,-4.82758619e-05 67.5345519,0.283491954 68.5433654,0.849767816 C69.5520163,1.41636552 70.3299417,2.22418161 70.8766536,3.27321609 C71.4233654,4.32257241 71.6967214,5.55521609 71.6967214,6.97114713 C71.6967214,8.3874 71.4233654,9.61988276 70.8766536,10.6690782 C70.3299417,11.7184345 69.5520163,12.529469 68.5433654,13.1021816 C67.5345519,13.6752161 66.3467553,13.961492 64.9799756,13.961492 C63.6131959,13.961492 62.4252366,13.6752161 61.4165858,13.1021816" id="Fill-9"></path>
                    <path d="M88.2637993,0.492494253 C88.5304841,0.769436782 88.6640705,1.12667816 88.6640705,1.56421839 L88.6640705,12.5324943 C88.6640705,12.9573218 88.5402468,13.2921954 88.2930875,13.5367931 C88.0457654,13.7812299 87.720179,13.9035287 87.3168163,13.9035287 C86.9263078,13.9035287 86.6072298,13.7812299 86.3600705,13.5367931 C86.1125858,13.2921954 85.9890875,12.9573218 85.9890875,12.5324943 L85.9890875,5.71594253 L83.2164773,10.8718046 C83.0340773,11.2068391 82.8357315,11.4511149 82.6209519,11.6057586 C82.4061722,11.7600805 82.1489247,11.8373218 81.8496976,11.8373218 C81.563162,11.8373218 81.3093315,11.7600805 81.0882061,11.6057586 C80.8667553,11.4511149 80.6649925,11.2068391 80.482918,10.8718046 L77.7103078,5.81265517 L77.7103078,12.5324943 C77.7103078,12.9446092 77.5864841,13.2757816 77.3393247,13.526977 C77.09184,13.7781724 76.7664163,13.9035287 76.3630536,13.9035287 C75.9725451,13.9035287 75.6534671,13.7812299 75.4063078,13.5367931 C75.1588231,13.2921954 75.0353247,12.9573218 75.0353247,12.5324943 L75.0353247,1.56421839 C75.0353247,1.12667816 75.1687485,0.769436782 75.4355959,0.492494253 C75.7022807,0.215873563 76.0506468,0.0773218391 76.4802061,0.0773218391 C77.1050197,0.0773218391 77.5799756,0.405597701 77.905562,1.06214943 L81.8692231,8.49663218 L85.8133586,1.06214943 C86.1648163,0.405597701 86.6334264,0.0773218391 87.2191892,0.0773218391 C87.6487485,0.0773218391 87.9967892,0.215873563 88.2637993,0.492494253" id="Fill-11"></path>
                    <path d="M92.7839024,13.4207379 C92.5364176,13.1763011 92.4129193,12.8287149 92.4129193,12.3781402 L92.4129193,1.58349655 C92.4129193,1.13308276 92.5364176,0.785335632 92.7839024,0.540898851 C93.0310617,0.296301149 93.3825193,0.173841379 93.8382753,0.173841379 L100.750275,0.173841379 C101.713367,0.173841379 102.195157,0.560048276 102.195157,1.33262299 C102.195157,2.11791034 101.713367,2.5103931 100.750275,2.5103931 L95.3807837,2.5103931 L95.3807837,5.6966 L100.359767,5.6966 C101.322858,5.6966 101.804648,6.0894046 101.804648,6.87453103 C101.804648,7.64694483 101.322858,8.03331264 100.359767,8.03331264 L95.3807837,8.03331264 L95.3807837,11.4510828 L100.750275,11.4510828 C101.713367,11.4510828 102.195157,11.8438874 102.195157,12.6290138 C102.195157,13.4015885 101.713367,13.7876345 100.750275,13.7876345 L93.8382753,13.7876345 C93.3825193,13.7876345 93.0310617,13.6654966 92.7839024,13.4207379" id="Fill-13"></path>
                    <path d="M116.516795,0.492494253 C116.783479,0.769436782 116.917066,1.12667816 116.917066,1.56421839 L116.917066,12.3973218 C116.917066,12.8480575 116.783479,13.2117356 116.516795,13.4883563 C116.249784,13.7652989 115.901744,13.9035287 115.472184,13.9035287 C115.003574,13.9035287 114.62592,13.7363333 114.33971,13.4016207 L107.798693,5.11732184 L107.798693,12.3973218 C107.798693,12.8480575 107.671778,13.2117356 107.417947,13.4883563 C107.164117,13.7652989 106.822422,13.9035287 106.392862,13.9035287 C105.963303,13.9035287 105.618354,13.7652989 105.358015,13.4883563 C105.097513,13.2117356 104.967506,12.8480575 104.967506,12.3973218 L104.967506,1.56421839 C104.967506,1.12667816 105.100767,0.769436782 105.367778,0.492494253 C105.634462,0.215873563 105.982828,0.0773218391 106.412388,0.0773218391 C106.893852,0.0773218391 107.264835,0.24483908 107.525337,0.579390805 L114.066354,8.8055977 L114.066354,1.56421839 C114.066354,1.12667816 114.196361,0.769436782 114.456862,0.492494253 C114.717039,0.215873563 115.055479,0.0773218391 115.472184,0.0773218391 C115.901744,0.0773218391 116.249784,0.215873563 116.516795,0.492494253" id="Fill-15"></path>
                    <path d="M124.229402,13.4787333 C123.949212,13.2082276 123.809605,12.8480897 123.809605,12.397354 L123.809605,2.62631954 L120.646324,2.62631954 C119.68307,2.62631954 119.201605,2.21452644 119.201605,1.39045747 C119.201605,0.579422989 119.68307,0.173744828 120.646324,0.173744828 L130.01869,0.173744828 C130.981782,0.173744828 131.463572,0.579422989 131.463572,1.39045747 C131.463572,2.21452644 130.981782,2.62631954 130.01869,2.62631954 L126.855572,2.62631954 L126.855572,12.397354 C126.855572,12.8480897 126.718894,13.2082276 126.445538,13.4787333 C126.172182,13.7490782 125.801199,13.8844115 125.332588,13.8844115 C124.876833,13.8844115 124.509266,13.7490782 124.229402,13.4787333" id="Fill-17"></path>
                    <path d="M135.446823,13.6042989 C134.561508,13.3662989 133.838904,13.0282069 133.279501,12.5903448 C133.084084,12.4488966 132.944152,12.2977931 132.859704,12.1367126 C132.774769,11.975954 132.732626,11.7730345 132.732626,11.5284368 C132.732626,11.2069195 132.833345,10.9233793 133.035433,10.6787816 C133.237033,10.4343448 133.468084,10.3117241 133.728423,10.3117241 C133.871609,10.3117241 134.011704,10.3344138 134.148382,10.3793103 C134.284898,10.4245287 134.451026,10.5049885 134.646281,10.6206897 C135.205847,10.9682759 135.771921,11.2226897 136.344993,11.3834483 C136.917576,11.5446897 137.548898,11.6248276 138.238959,11.6248276 C139.097915,11.6248276 139.755271,11.4833793 140.210864,11.2001609 C140.666457,10.9171034 140.894254,10.5115862 140.894254,9.9836092 C140.894254,9.58468966 140.682728,9.26285057 140.25984,9.01809195 C139.836626,8.77349425 139.084898,8.54193103 138.004654,8.32291954 C136.793915,8.07848276 135.827569,7.78222989 135.104965,7.43464368 C134.382687,7.08705747 133.855501,6.6557931 133.523569,6.14068966 C133.191637,5.62606897 133.025671,5.00137931 133.025671,4.26758621 C133.025671,3.45655172 133.262904,2.72613793 133.738348,2.07586207 C134.213304,1.42590805 134.870823,0.917402299 135.710416,0.550505747 C136.549847,0.183609195 137.496993,0 138.551365,0 C140.399447,0 141.922593,0.457333333 143.120315,1.37103448 C143.315406,1.52551724 143.455338,1.68337931 143.540111,1.84429885 C143.624559,2.00537931 143.667026,2.20154023 143.667026,2.43326437 C143.667026,2.75510345 143.565982,3.03848276 143.364382,3.28275862 C143.162457,3.52767816 142.931406,3.64981609 142.671067,3.64981609 C142.527881,3.64981609 142.394457,3.63050575 142.270796,3.59172414 C142.147135,3.55310345 141.97466,3.46974713 141.753535,3.34085057 C141.219677,3.00629885 140.72845,2.75510345 140.279365,2.58758621 C139.830118,2.42055172 139.260626,2.33655172 138.570891,2.33655172 C137.776694,2.33655172 137.151881,2.48813793 136.69645,2.79050575 C136.240694,3.09303448 136.012898,3.5082069 136.012898,4.03586207 C136.012898,4.34482759 136.100925,4.59924138 136.276654,4.79862069 C136.452382,4.99848276 136.745101,5.17517241 137.155298,5.32981609 C137.565332,5.48413793 138.14784,5.64537931 138.902823,5.81257471 C140.672803,6.19862069 141.945372,6.69457471 142.720043,7.29947126 C143.494389,7.90468966 143.881806,8.73487356 143.881806,9.79050575 C143.881806,10.6144138 143.650593,11.341931 143.188654,11.9724138 C142.726389,12.6033793 142.075704,13.0925747 141.236111,13.44 C140.396518,13.7877471 139.423176,13.9615402 138.31706,13.9615402 C137.288559,13.9615402 136.331813,13.8422989 135.446823,13.6042989" id="Fill-19"></path>
                </g>
            </g>
        </g>
    </g>
</svg>