<?xml version="1.0" encoding="UTF-8"?>
<svg width="29px" height="29px" viewBox="0 0 29 29" version="1.1" xmlns="http://www.w3.org/2000/svg" xmlns:xlink="http://www.w3.org/1999/xlink">
    <!-- Generator: Sketch 43.1 (39012) - http://www.bohemiancoding.com/sketch -->
    <title>fb icon</title>
    <desc>Created with Sketch.</desc>
    <defs>
        <polygon id="path-1" points="0 0 0 15.0947353 15.9917137 15.0947353 15.9917137 0 1.72437721e-21 0"></polygon>
    </defs>
    <g id="Page-1" stroke="none" stroke-width="1" fill="none" fill-rule="evenodd">
        <g id="One-pager" transform="translate(-1276.000000, -2821.000000)">
            <g id="Footer" transform="translate(0.000000, 2792.000000)">
                <g id="fb-icon" transform="translate(1276.000000, 29.000000)">
                    <ellipse id="Oval" fill="#FFFFFF" cx="14.5" cy="14.5" rx="14.5" ry="14.5"></ellipse>
                    <g id="Page-1" transform="translate(7.000000, 7.000000)">
                        <g id="Group-3" transform="translate(0.000000, 0.022218)">
                            <mask id="mask-2" fill="white">
                                <use xlink:href="#path-1"></use>
                            </mask>
                            <g id="Clip-2"></g>
                            <path d="M11.3958966,13.7475337 L4.595833,13.7475337 C2.85046521,13.7475337 1.43556262,12.4119938 1.43556262,10.7644947 L1.43556262,4.34615082 C1.43556262,2.69868171 2.85046521,1.36314182 4.595833,1.36314182 L11.3958966,1.36314182 C13.1412644,1.36314182 14.5561988,2.69868171 14.5561988,4.34615082 L14.5561988,10.7644947 C14.5561988,12.4119938 13.1412644,13.7475337 11.3958966,13.7475337 M-1.59045721e-05,4.18593768 L-1.59045721e-05,10.9244376 C-1.59045721e-05,13.2319453 1.98175746,15.1025598 4.4264175,15.1025598 L11.5653121,15.1025598 C14.0099722,15.1025598 15.9917137,13.2319453 15.9917137,10.9244376 L15.9917137,4.18593768 C15.9917137,1.87843005 14.0099722,0.00781549498 11.5653121,0.00781549498 L4.4264175,0.00781549498 C1.98175746,0.00781549498 -1.59045721e-05,1.87843005 -1.59045721e-05,4.18593768" id="Fill-1" fill="#002D40" mask="url(#mask-2)"></path>
                        </g>
                        <path d="M7.97582505,10.0958871 C6.50242545,10.0958871 5.30767396,8.96814988 5.30767396,7.57739411 C5.30767396,6.18663834 6.50242545,5.05890114 7.97582505,5.05890114 C9.44922465,5.05890114 10.6439761,6.18663834 10.6439761,7.57739411 C10.6439761,8.96814988 9.44922465,10.0958871 7.97582505,10.0958871 M7.97582505,3.71708604 C5.71705765,3.71708604 3.88612326,5.44532227 3.88612326,7.57739411 C3.88612326,9.70946594 5.71705765,11.4377022 7.97582505,11.4377022 C10.2345924,11.4377022 12.0655268,9.70946594 12.0655268,7.57739411 C12.0655268,5.44532227 10.2345924,3.71708604 7.97582505,3.71708604" id="Fill-4" fill="#002D40"></path>
                        <path d="M13.1934569,3.5348496 C13.1934569,4.03809782 12.7612342,4.44607686 12.2280493,4.44607686 C11.694928,4.44607686 11.2627054,4.03809782 11.2627054,3.5348496 C11.2627054,3.03157135 11.694928,2.62362233 12.2280493,2.62362233 C12.7612342,2.62362233 13.1934569,3.03157135 13.1934569,3.5348496" id="Fill-6" fill="#002D40"></path>
                    </g>
                </g>
            </g>
        </g>
    </g>
</svg>